#Comment line ignore any data following # character 
#Hierarchical Translation and Rotation (.htr) file 
[Header]	
#Header keywords are followed by a single value 
FileType HTR		#Single word string
DataType HTRS		#Translation followed by rotation and scale data
FileVersion 1		#integer
NumSegments 84		#integer
NumFrames 2		#integer
DataFrameRate 30		#integer, data frame rate in this file
EulerRotationOrder ZYX
CalibrationUnits mm
RotationUnits Degrees
GlobalAxisofGravity Y
BoneLengthAxis Y
ScaleFactor 1.00
[SegmentNames&Hierarchy]
#CHILD	PARENT
MASTER GLOBAL
root MASTER
chest root
L_mid_tent01 root
R_mid_tent01 root
spine01 root
Bip01_Neck chest
L_humerus chest
R_humerus chest
weapon_bone chest
Bip01_Head Bip01_Neck
eye_left_bone Bip01_Head
eye_right_bone Bip01_Head
L_forearm L_humerus
L_front_hand L_forearm
L_weapon_bone L_forearm
L_front_hand01_01 L_front_hand
L_front_hand02_01 L_front_hand
L_front_hand03_01 L_front_hand
L_front_hand01_02 L_front_hand01_01
L_front_hand02_02 L_front_hand02_01
L_front_hand03_02 L_front_hand03_01
R_forearm R_humerus
R_front_hand R_forearm
R_weapon_bone R_forearm
R_front_hand01_01 R_front_hand
R_front_hand02_01 R_front_hand
R_front_hand03_01 R_front_hand
R_front_hand01_02 R_front_hand01_01
R_front_hand02_02 R_front_hand02_01
R_front_hand03_02 R_front_hand03_01
null_rope01_connect L_mid_tent01
Rope1_Seg01 null_rope01_connect
Rope1_Seg02 Rope1_Seg01
Rope1_Seg03 Rope1_Seg02
Rope1_Seg04 Rope1_Seg03
Rope1_Seg05 Rope1_Seg04
Rope1_Seg06 Rope1_Seg05
Rope1_Seg07 Rope1_Seg06
Rope1_Seg09 Rope1_Seg07
L_mid_hand01 Rope1_Seg09
L_mid_hand02 Rope1_Seg09
L_mid_hand03 Rope1_Seg09
null_rope02_connect R_mid_tent01
Rope2_Seg01 null_rope02_connect
Rope2_Seg02 Rope2_Seg01
Rope2_Seg03 Rope2_Seg02
Rope2_Seg04 Rope2_Seg03
Rope2_Seg05 Rope2_Seg04
Rope2_Seg06 Rope2_Seg05
Rope2_Seg07 Rope2_Seg06
Rope2_Seg09 Rope2_Seg07
R_mid_hand01 Rope2_Seg09
R_mid_hand02 Rope2_Seg09
R_mid_hand03 Rope2_Seg09
spine02 spine01
spine03 spine02
pelvis spine03
null_rope03_connect pelvis
null_rope04_connect pelvis
Rope3_Seg01 null_rope03_connect
Rope3_Seg02 Rope3_Seg01
Rope3_Seg03 Rope3_Seg02
Rope3_Seg04 Rope3_Seg03
Rope3_Seg05 Rope3_Seg04
Rope3_Seg06 Rope3_Seg05
Rope3_Seg07 Rope3_Seg06
Rope3_Seg08 Rope3_Seg07
Rope3_Seg09 Rope3_Seg08
R_rear_hand01 Rope3_Seg09
R_rear_hand02 Rope3_Seg09
R_rear_hand03 Rope3_Seg09
Rope4_Seg01 null_rope04_connect
Rope4_Seg02 Rope4_Seg01
Rope4_Seg03 Rope4_Seg02
Rope4_Seg04 Rope4_Seg03
Rope4_Seg05 Rope4_Seg04
Rope4_Seg06 Rope4_Seg05
Rope4_Seg07 Rope4_Seg06
Rope4_Seg08 Rope4_Seg07
Rope4_Seg09 Rope4_Seg08
L_rear_hand01 Rope4_Seg09
L_rear_hand02 Rope4_Seg09
L_rear_hand03 Rope4_Seg09
[BasePosition]
#SegmentName Tx, Ty, Tz, Rx, Ry, Rz, BoneLength
MASTER 0.000000 0.000000 0.000000 -90.000000 0.000000 0.000000 10.000000 
root 0.000000 0.000000 0.000000 0.000000 0.000000 0.000000 10.000000 
chest 0.000000 0.000000 0.000000 0.000000 0.000000 0.000000 10.000000 
L_mid_tent01 0.000000 0.000000 0.000000 0.000000 0.000000 0.000000 10.000000 
R_mid_tent01 0.000000 0.000000 0.000000 0.000000 0.000000 0.000000 10.000000 
spine01 0.000000 0.000000 0.000000 0.000000 0.000000 0.000000 10.000000 
Bip01_Neck 0.000000 0.000000 0.000000 0.000000 0.000000 0.000000 10.000000 
L_humerus 0.000000 0.000000 0.000000 0.000000 0.000000 0.000000 10.000000 
R_humerus 0.000000 0.000000 0.000000 0.000000 0.000000 0.000000 10.000000 
weapon_bone 0.000000 0.000000 0.000000 0.000000 0.000000 0.000000 10.000000 
Bip01_Head 0.000000 0.000000 0.000000 0.000000 0.000000 0.000000 10.000000 
eye_left_bone 0.000000 0.000000 0.000000 0.000000 0.000000 0.000000 10.000000 
eye_right_bone 0.000000 0.000000 0.000000 0.000000 0.000000 0.000000 10.000000 
L_forearm 0.000000 0.000000 0.000000 0.000000 0.000000 0.000000 10.000000 
L_front_hand 0.000000 0.000000 0.000000 0.000000 0.000000 0.000000 10.000000 
L_weapon_bone 0.000000 0.000000 0.000000 0.000000 0.000000 0.000000 10.000000 
L_front_hand01_01 0.000000 0.000000 0.000000 0.000000 0.000000 0.000000 10.000000 
L_front_hand02_01 0.000000 0.000000 0.000000 0.000000 0.000000 0.000000 10.000000 
L_front_hand03_01 0.000000 0.000000 0.000000 0.000000 0.000000 0.000000 10.000000 
L_front_hand01_02 0.000000 0.000000 0.000000 0.000000 0.000000 0.000000 10.000000 
L_front_hand02_02 0.000000 0.000000 0.000000 0.000000 0.000000 0.000000 10.000000 
L_front_hand03_02 0.000000 0.000000 0.000000 0.000000 0.000000 0.000000 10.000000 
R_forearm 0.000000 0.000000 0.000000 0.000000 0.000000 0.000000 10.000000 
R_front_hand 0.000000 0.000000 0.000000 0.000000 0.000000 0.000000 10.000000 
R_weapon_bone 0.000000 0.000000 0.000000 0.000000 0.000000 0.000000 10.000000 
R_front_hand01_01 0.000000 0.000000 0.000000 0.000000 0.000000 0.000000 10.000000 
R_front_hand02_01 0.000000 0.000000 0.000000 0.000000 0.000000 0.000000 10.000000 
R_front_hand03_01 0.000000 0.000000 0.000000 0.000000 0.000000 0.000000 10.000000 
R_front_hand01_02 0.000000 0.000000 0.000000 0.000000 0.000000 0.000000 10.000000 
R_front_hand02_02 0.000000 0.000000 0.000000 0.000000 0.000000 0.000000 10.000000 
R_front_hand03_02 0.000000 0.000000 0.000000 0.000000 0.000000 0.000000 10.000000 
null_rope01_connect 0.000000 0.000000 0.000000 0.000000 0.000000 0.000000 10.000000 
Rope1_Seg01 0.000000 0.000000 0.000000 0.000000 0.000000 0.000000 10.000000 
Rope1_Seg02 0.000000 0.000000 0.000000 0.000000 0.000000 0.000000 10.000000 
Rope1_Seg03 0.000000 0.000000 0.000000 0.000000 0.000000 0.000000 10.000000 
Rope1_Seg04 0.000000 0.000000 0.000000 0.000000 0.000000 0.000000 10.000000 
Rope1_Seg05 0.000000 0.000000 0.000000 0.000000 0.000000 0.000000 10.000000 
Rope1_Seg06 0.000000 0.000000 0.000000 0.000000 0.000000 0.000000 10.000000 
Rope1_Seg07 0.000000 0.000000 0.000000 0.000000 0.000000 0.000000 10.000000 
Rope1_Seg09 0.000000 0.000000 0.000000 0.000000 0.000000 0.000000 10.000000 
L_mid_hand01 0.000000 0.000000 0.000000 0.000000 0.000000 0.000000 10.000000 
L_mid_hand02 0.000000 0.000000 0.000000 0.000000 0.000000 0.000000 10.000000 
L_mid_hand03 0.000000 0.000000 0.000000 0.000000 0.000000 0.000000 10.000000 
null_rope02_connect 0.000000 0.000000 0.000000 0.000000 0.000000 0.000000 10.000000 
Rope2_Seg01 0.000000 0.000000 0.000000 0.000000 0.000000 0.000000 10.000000 
Rope2_Seg02 0.000000 0.000000 0.000000 0.000000 0.000000 0.000000 10.000000 
Rope2_Seg03 0.000000 0.000000 0.000000 0.000000 0.000000 0.000000 10.000000 
Rope2_Seg04 0.000000 0.000000 0.000000 0.000000 0.000000 0.000000 10.000000 
Rope2_Seg05 0.000000 0.000000 0.000000 0.000000 0.000000 0.000000 10.000000 
Rope2_Seg06 0.000000 0.000000 0.000000 0.000000 0.000000 0.000000 10.000000 
Rope2_Seg07 0.000000 0.000000 0.000000 0.000000 0.000000 0.000000 10.000000 
Rope2_Seg09 0.000000 0.000000 0.000000 0.000000 0.000000 0.000000 10.000000 
R_mid_hand01 0.000000 0.000000 0.000000 0.000000 0.000000 0.000000 10.000000 
R_mid_hand02 0.000000 0.000000 0.000000 0.000000 0.000000 0.000000 10.000000 
R_mid_hand03 0.000000 0.000000 0.000000 0.000000 0.000000 0.000000 10.000000 
spine02 0.000000 0.000000 0.000000 0.000000 0.000000 0.000000 10.000000 
spine03 0.000000 0.000000 0.000000 0.000000 0.000000 0.000000 10.000000 
pelvis 0.000000 0.000000 0.000000 0.000000 0.000000 0.000000 10.000000 
null_rope03_connect 0.000000 0.000000 0.000000 0.000000 0.000000 0.000000 10.000000 
null_rope04_connect 0.000000 0.000000 0.000000 0.000000 0.000000 0.000000 10.000000 
Rope3_Seg01 0.000000 0.000000 0.000000 0.000000 0.000000 0.000000 10.000000 
Rope3_Seg02 0.000000 0.000000 0.000000 0.000000 0.000000 0.000000 10.000000 
Rope3_Seg03 0.000000 0.000000 0.000000 0.000000 0.000000 0.000000 10.000000 
Rope3_Seg04 0.000000 0.000000 0.000000 0.000000 0.000000 0.000000 10.000000 
Rope3_Seg05 0.000000 0.000000 0.000000 0.000000 0.000000 0.000000 10.000000 
Rope3_Seg06 0.000000 0.000000 0.000000 0.000000 0.000000 0.000000 10.000000 
Rope3_Seg07 0.000000 0.000000 0.000000 0.000000 0.000000 0.000000 10.000000 
Rope3_Seg08 0.000000 0.000000 0.000000 0.000000 0.000000 0.000000 10.000000 
Rope3_Seg09 0.000000 0.000000 0.000000 0.000000 0.000000 0.000000 10.000000 
R_rear_hand01 0.000000 0.000000 0.000000 0.000000 0.000000 0.000000 10.000000 
R_rear_hand02 0.000000 0.000000 0.000000 0.000000 0.000000 0.000000 10.000000 
R_rear_hand03 0.000000 0.000000 0.000000 0.000000 0.000000 0.000000 10.000000 
Rope4_Seg01 0.000000 0.000000 0.000000 0.000000 0.000000 0.000000 10.000000 
Rope4_Seg02 0.000000 0.000000 0.000000 0.000000 0.000000 0.000000 10.000000 
Rope4_Seg03 0.000000 0.000000 0.000000 0.000000 0.000000 0.000000 10.000000 
Rope4_Seg04 0.000000 0.000000 0.000000 0.000000 0.000000 0.000000 10.000000 
Rope4_Seg05 0.000000 0.000000 0.000000 0.000000 0.000000 0.000000 10.000000 
Rope4_Seg06 0.000000 0.000000 0.000000 0.000000 0.000000 0.000000 10.000000 
Rope4_Seg07 0.000000 0.000000 0.000000 0.000000 0.000000 0.000000 10.000000 
Rope4_Seg08 0.000000 0.000000 0.000000 0.000000 0.000000 0.000000 10.000000 
Rope4_Seg09 0.000000 0.000000 0.000000 0.000000 0.000000 0.000000 10.000000 
L_rear_hand01 0.000000 0.000000 0.000000 0.000000 0.000000 0.000000 10.000000 
L_rear_hand02 0.000000 0.000000 0.000000 0.000000 0.000000 0.000000 10.000000 
L_rear_hand03 0.000000 0.000000 0.000000 0.000000 0.000000 0.000000 10.000000 
#Beginning of Data. Separated by tabs
#Fr	Tx	Ty	Tz	Rx	Ry	Rz	SF
[MASTER]
4 0.000000 0.000000 0.000000 0.001660 0.001660 0.001660 0.000000
5 0.000000 0.000000 0.000000 0.001660 0.001660 0.001660 0.000000
[root]
4 -16.585445 -191.818283 1099.339478 -85.950584 -55.578022 -92.160210 1116.072021
5 -16.658630 -186.353851 1103.616333 -86.100044 -53.956841 -91.917633 1119.363281
[chest]
4 -84.512650 -34.090519 0.000000 2.407593 -1.639556 -122.083908 91.129311
5 -84.512650 -34.090519 0.000000 2.414799 -1.675881 -121.750488 91.129311
[L_mid_tent01]
4 27.341854 22.153271 -250.189453 -17.816355 -0.370429 119.240486 252.652145
5 27.355947 22.145185 -250.279968 -18.187374 -1.081868 116.839592 252.742599
[R_mid_tent01]
4 23.228794 24.509907 226.238495 -174.116837 2.447763 109.755875 228.744751
5 23.228794 24.509907 226.238495 -173.720642 2.755395 107.748199 228.744751
[spine01]
4 -0.361383 -0.195265 0.000000 0.001947 0.001311 22.117355 0.410763
5 -0.361383 -0.195265 0.000000 0.001947 0.001310 22.122396 0.410763
[Bip01_Neck]
4 165.484543 71.581718 0.000119 175.896118 1.177290 24.871185 180.302734
5 165.484543 71.581718 0.000119 175.896118 1.177290 24.871183 180.302734
[L_humerus]
4 -13.983130 -135.272980 -120.471481 -88.531876 1.058577 -172.829285 181.680161
5 -13.983130 -135.272980 -120.471481 -88.418793 1.102491 -174.557968 181.680161
[R_humerus]
4 -13.983309 -135.273102 125.287651 103.000740 1.729733 -169.272232 184.909012
5 -13.983309 -135.273102 125.287651 103.000740 1.729733 -169.272232 184.909012
[weapon_bone]
4 235.964890 -300.705902 0.000000 0.000000 -89.951546 -128.212341 382.234833
5 235.964890 -300.705902 0.000000 0.000000 -89.951546 -128.212341 382.234833
[Bip01_Head]
4 102.819817 23.735447 5.410380 3.150732 3.423701 -20.839092 105.662476
5 102.819817 23.735453 5.410375 3.150732 3.423701 -20.839092 105.662476
[eye_left_bone]
4 -24.626970 125.451866 -64.772606 0.000000 -90.000000 -99.840431 143.318359
5 -24.626970 125.451866 -64.772606 0.000000 -90.000000 -99.840431 143.318359
[eye_right_bone]
4 -24.626970 125.451866 64.327362 0.000000 -89.972023 80.159386 143.117676
5 -24.626970 125.451866 64.327362 0.000000 -89.960434 80.159386 143.117676
[L_forearm]
4 322.776093 0.000000 -0.000119 0.000014 0.002347 -89.309639 322.776093
5 322.776093 0.000000 -0.000119 0.000014 0.002347 -89.316597 322.776093
[L_front_hand]
4 241.149185 -0.042021 -3.300071 -177.731277 -0.077372 -79.500031 241.171753
5 241.149185 -0.042021 -3.300071 -177.732162 -0.091004 -79.163345 241.171753
[L_weapon_bone]
4 156.183838 0.000000 0.000000 0.001747 0.001567 6.221508 156.183838
5 156.183838 0.000000 0.000000 0.001802 0.001504 10.327459 156.183838
[L_front_hand01_01]
4 86.095154 20.947098 -0.655860 0.405585 -0.442306 -4.620490 88.609184
5 86.095154 20.947098 -0.655860 0.405585 -0.442306 -4.620490 88.609184
[L_front_hand02_01]
4 86.935165 -11.437475 24.513514 116.959450 3.630817 1.495453 91.046425
5 86.935165 -11.437475 24.513514 116.959450 3.630817 1.495453 91.046425
[L_front_hand03_01]
4 86.637497 -14.123976 -20.424902 -118.420097 -4.656303 -0.152527 90.126129
5 86.637497 -14.123976 -20.424902 -118.420097 -4.656304 -0.152527 90.126129
[L_front_hand01_02]
4 71.020905 -0.000179 0.000030 0.001534 0.001777 -8.378850 71.020905
5 71.020905 -0.000179 0.000030 0.001534 0.001777 -8.378850 71.020905
[L_front_hand02_02]
4 71.020927 -0.000119 0.000060 0.001534 0.001777 -8.378850 71.020927
5 71.020927 -0.000119 0.000060 0.001534 0.001777 -8.378850 71.020927
[L_front_hand03_02]
4 71.020905 -0.000060 0.000060 0.001534 0.001777 -8.378850 71.020905
5 71.020905 -0.000060 0.000060 0.001534 0.001777 -8.378850 71.020905
[R_forearm]
4 322.776428 -0.000060 0.000030 0.212107 -0.027350 -83.421944 322.776428
5 322.776428 -0.000060 0.000030 0.212380 -0.025144 -84.613365 322.776428
[R_front_hand]
4 238.847015 -0.006795 2.210259 -1.677950 -0.406461 -92.273872 238.857239
5 238.847015 -0.006795 2.210259 -1.679136 -0.395043 -91.971825 238.857239
[R_weapon_bone]
4 155.664093 0.002503 -0.000030 0.003406 0.001396 -98.184906 155.664078
5 155.664093 0.002503 -0.000030 0.003345 0.001536 -102.930550 155.664078
[R_front_hand01_01]
4 87.624611 14.231146 22.918642 -116.960213 3.496675 -1.324139 91.683487
5 87.624611 14.231146 22.918642 -116.960205 3.496675 -1.324138 91.683487
[R_front_hand02_01]
4 89.356956 14.367283 -19.491137 118.419647 -4.257089 0.609827 92.579636
5 89.356956 14.367283 -19.491137 118.419647 -4.257089 0.609827 92.579636
[R_front_hand03_01]
4 87.286232 -22.307278 -0.143439 -0.387970 -0.231462 4.232001 90.091743
5 87.286232 -22.307278 -0.143439 -0.387970 -0.231462 4.232001 90.091743
[R_front_hand01_02]
4 71.020905 0.000060 0.000119 0.001777 0.001534 8.377220 71.020905
5 71.020905 0.000060 0.000119 0.001777 0.001534 8.377220 71.020905
[R_front_hand02_02]
4 71.020844 -0.000030 -0.000119 0.001777 0.001534 8.377220 71.020836
5 71.020844 -0.000030 -0.000119 0.001777 0.001534 8.377220 71.020836
[R_front_hand03_02]
4 71.020905 0.000000 0.000030 0.001777 0.001534 8.377220 71.020905
5 71.020905 0.000000 0.000030 0.001777 0.001534 8.377220 71.020905
[null_rope01_connect]
4 328.732483 0.000000 -0.000238 107.327454 -71.911308 -80.487457 328.732483
5 328.732483 0.000000 -0.000238 106.101303 -71.397583 -78.355347 328.732483
[Rope1_Seg01]
4 0.000000 0.000000 0.000000 95.074585 21.519491 106.115883 0.000000
5 0.000000 0.000000 0.000000 102.304756 20.198126 117.495239 0.000000
[Rope1_Seg02]
4 139.999863 -0.000179 0.000000 28.759560 -19.771084 49.606461 139.999863
5 139.999863 -0.000179 0.000000 13.604442 -24.192362 52.182747 139.999863
[Rope1_Seg03]
4 139.999924 0.000060 -0.000060 56.849705 10.382393 17.242445 139.999924
5 139.999924 0.000060 -0.000060 57.720619 8.728958 17.964348 139.999924
[Rope1_Seg04]
4 139.999924 -0.000060 -0.000119 30.910660 43.250156 1.863205 139.999924
5 139.999924 -0.000060 -0.000119 34.523258 42.389954 4.484799 139.999924
[Rope1_Seg05]
4 139.999832 0.000119 -0.000060 1.020187 18.315392 -9.845994 139.999832
5 139.999832 0.000119 -0.000060 1.569206 17.689873 -9.074922 139.999832
[Rope1_Seg06]
4 139.999954 0.000119 -0.000060 -0.055336 8.586291 -4.988461 139.999954
5 139.999954 0.000119 -0.000060 0.154393 8.390844 -4.748995 139.999954
[Rope1_Seg07]
4 139.999985 0.000060 0.000000 -0.058365 3.137084 -1.830606 139.999985
5 139.999985 0.000060 0.000000 0.012039 3.281746 -1.883161 139.999985
[Rope1_Seg09]
4 121.602913 0.000119 -0.000089 -89.793175 -1.359789 0.847147 121.602913
5 121.602913 0.000119 -0.000089 -89.793175 -1.359789 0.847147 121.602913
[L_mid_hand01]
4 103.859421 1.038730 8.195221 104.352036 0.341479 -0.444583 104.187431
5 103.859421 1.038730 8.195221 104.352028 0.341479 -0.444583 104.187431
[L_mid_hand02]
4 105.572853 -4.139662 -10.864139 -135.608444 3.905687 -3.381056 106.211075
5 105.572853 -4.139662 -10.864139 -135.608444 3.905687 -3.381056 106.211075
[L_mid_hand03]
4 104.641464 17.579376 -3.913581 -18.761515 -0.324361 2.942912 106.179977
5 104.641464 17.579376 -3.913581 -18.761518 -0.324361 2.942913 106.179977
[null_rope02_connect]
4 328.732849 0.000179 -0.000119 126.796181 83.736031 -89.051804 328.732849
5 328.732849 0.000179 -0.000119 124.769714 83.356720 -91.479607 328.732849
[Rope2_Seg01]
4 0.000076 0.000110 0.000153 -22.291643 50.814381 88.028320 0.000203
5 0.000076 0.000110 0.000153 -31.031275 49.237553 77.377281 0.000203
[Rope2_Seg02]
4 139.999741 -0.000060 -0.000119 -7.035719 -53.656822 -40.008465 139.999756
5 139.999741 -0.000060 -0.000119 -2.157201 -53.540432 -40.177860 139.999756
[Rope2_Seg03]
4 140.000107 0.000030 0.000000 -21.309870 -17.297125 -24.047710 140.000107
5 140.000107 0.000030 0.000000 -19.355627 -18.184296 -21.573954 140.000107
[Rope2_Seg04]
4 139.999802 0.000000 -0.000060 -20.874006 -11.939630 -32.779652 139.999802
5 139.999802 0.000000 -0.000060 -21.541004 -12.102063 -34.166988 139.999802
[Rope2_Seg05]
4 139.999985 -0.000060 0.000119 -10.099779 1.525390 -26.492802 139.999985
5 139.999985 -0.000060 0.000119 -9.044662 1.811393 -23.559929 139.999985
[Rope2_Seg06]
4 139.999893 -0.000030 -0.000119 -2.284777 2.742396 -11.362893 139.999893
5 139.999893 -0.000030 -0.000119 -2.260425 2.429217 -10.371345 139.999893
[Rope2_Seg07]
4 139.999893 0.000060 -0.000060 -0.481746 1.103479 -3.945669 139.999893
5 139.999893 0.000060 -0.000060 -0.460738 0.830497 -3.043733 139.999893
[Rope2_Seg09]
4 121.338966 0.000089 -0.000060 33.793236 -1.359788 -0.847141 121.338966
5 121.338966 0.000089 -0.000060 33.793236 -1.359788 -0.847141 121.338966
[R_mid_hand01]
4 104.680779 11.144459 -10.335981 -47.384258 2.963522 5.452604 105.778534
5 104.680779 11.144459 -10.335981 -47.384258 2.963522 5.452604 105.778534
[R_mid_hand02]
4 104.070427 2.443552 8.231699 75.626297 -2.250001 1.111093 104.424065
5 104.070427 2.443552 8.231699 75.626297 -2.250001 1.111093 104.424065
[R_mid_hand03]
4 106.028137 -11.221827 -5.996406 -164.381912 2.495983 -6.140520 106.788818
5 106.028137 -11.221827 -5.996406 -164.381927 2.495984 -6.140520 106.788818
[spine02]
4 129.756927 0.001550 0.000119 -3.371844 -3.055249 43.980724 129.756927
5 129.756927 0.001550 0.000119 -3.296728 -3.104738 42.622257 129.756927
[spine03]
4 79.099792 0.002731 -0.154839 5.301332 8.132071 50.105137 79.099945
5 79.094498 0.003642 -0.206454 5.225260 7.955842 49.516121 79.094772
[pelvis]
4 169.435242 0.051022 0.000000 -7.238344 -2.874556 13.982787 169.435257
5 169.435242 0.051022 0.000000 -7.206951 -2.876409 13.931948 169.435257
[null_rope03_connect]
4 -1.257226 -2.466202 137.391083 136.618729 -84.303604 -120.520973 137.418976
5 -1.257226 -2.466202 137.391083 133.509949 -84.325806 -117.048080 137.418976
[null_rope04_connect]
4 -1.259640 -2.480268 -137.844437 136.618729 -84.303604 -120.520973 137.872513
5 -1.259640 -2.480268 -137.844437 133.509949 -84.325806 -117.048080 137.872513
[Rope3_Seg01]
4 0.000040 0.000144 0.000000 -175.569550 74.732178 -111.295341 0.000149
5 0.000041 0.000141 0.000000 -175.280975 74.112129 -111.257683 0.000147
[Rope3_Seg02]
4 139.999924 -0.000119 0.000060 -11.340098 -19.811554 11.518207 139.999924
5 139.999924 -0.000119 0.000060 -11.207334 -19.290678 11.317413 139.999924
[Rope3_Seg03]
4 139.999924 -0.000119 0.000119 -19.573313 -45.179150 21.300877 139.999924
5 139.999924 -0.000119 0.000119 -20.259956 -45.302956 21.729616 139.999924
[Rope3_Seg04]
4 139.999924 0.000119 0.000000 -0.440120 -23.000292 3.907513 139.999924
5 139.999924 0.000119 0.000000 -0.559682 -23.521833 3.933037 139.999924
[Rope3_Seg05]
4 139.999924 -0.000238 0.000060 8.768872 -61.632439 16.267056 139.999924
5 139.999924 -0.000238 0.000060 8.696544 -60.732956 15.746875 139.999924
[Rope3_Seg06]
4 139.999893 -0.000119 -0.000060 11.528759 -40.909409 26.335878 139.999893
5 139.999893 -0.000119 -0.000060 11.567846 -41.621964 26.417288 139.999893
[Rope3_Seg07]
4 139.999771 0.000060 -0.000119 2.947194 -5.170505 5.913243 139.999771
5 139.999771 0.000060 -0.000119 2.994326 -5.268786 5.968360 139.999771
[Rope3_Seg08]
4 139.999985 -0.000060 0.000000 1.482603 -1.965226 2.504263 139.999985
5 139.999985 -0.000060 0.000000 1.496542 -1.997853 2.515987 139.999985
[Rope3_Seg09]
4 90.185997 -0.000179 -0.000060 89.793228 -1.359877 -0.847183 90.185997
5 90.185997 -0.000179 -0.000060 89.793228 -1.359877 -0.847183 90.185997
[R_rear_hand01]
4 103.366196 -6.073594 -10.757982 -156.049316 6.070419 -2.795869 104.101845
5 103.366196 -6.073594 -10.757982 -156.049316 6.070419 -2.795869 104.101845
[R_rear_hand02]
4 100.509819 12.039542 -7.992327 -38.708435 1.958051 5.461186 101.543350
5 100.509819 12.039542 -7.992327 -38.708424 1.958051 5.461185 101.543350
[R_rear_hand03]
4 101.539970 5.215704 5.435467 84.307625 -2.361032 4.099037 101.819031
5 101.539970 5.215704 5.435467 84.307625 -2.361032 4.099037 101.819031
[Rope4_Seg01]
4 0.000000 0.000065 -0.000144 80.807930 78.629616 -80.779274 0.000158
5 0.000000 0.000062 -0.000141 79.119461 78.206718 -82.319565 0.000154
[Rope4_Seg02]
4 139.999985 0.000060 0.000119 4.951478 6.020829 -16.042202 139.999985
5 139.999985 0.000060 0.000119 4.869392 6.011797 -15.896112 139.999985
[Rope4_Seg03]
4 139.999924 0.000000 -0.000238 3.835501 11.285019 -47.634190 139.999924
5 139.999924 0.000000 -0.000238 3.712514 11.590376 -48.007786 139.999924
[Rope4_Seg04]
4 139.999985 0.000000 0.000119 -2.275908 3.252171 -30.984842 139.999985
5 139.999985 0.000000 0.000119 -2.254500 3.392952 -30.869959 139.999985
[Rope4_Seg05]
4 139.999802 -0.000060 -0.000119 -12.758379 5.124848 -43.053085 139.999802
5 139.999802 -0.000060 -0.000119 -12.621388 4.879316 -43.095135 139.999802
[Rope4_Seg06]
4 139.999924 0.000000 0.000060 -30.715015 15.776280 -59.196316 139.999924
5 139.999924 0.000000 0.000060 -31.414984 15.526902 -60.248074 139.999924
[Rope4_Seg07]
4 139.999802 0.000000 0.000000 -3.622955 7.633905 -9.210463 139.999802
5 139.999802 0.000000 0.000000 -3.549114 7.463219 -8.915681 139.999802
[Rope4_Seg08]
4 139.999924 0.000000 0.000119 -2.473237 2.908681 -3.124582 139.999924
5 139.999924 0.000000 0.000119 -2.469583 2.851060 -3.044010 139.999924
[Rope4_Seg09]
4 90.185791 0.000060 0.000060 -135.617828 2.228885 0.850567 90.185791
5 90.185791 0.000060 0.000060 -135.617828 2.228885 0.850567 90.185791
[L_rear_hand01]
4 101.696655 -8.392275 -7.654577 -38.746342 0.246096 177.290207 102.329041
5 101.696655 -8.392275 -7.654577 -38.746338 0.246096 177.290207 102.329041
[L_rear_hand02]
4 102.726799 -1.568258 5.773216 84.315140 -1.142796 176.247437 102.900848
5 102.726799 -1.568258 5.773216 84.315163 -1.142796 176.247437 102.900848
[L_rear_hand03]
4 104.552910 9.721220 -10.420293 -155.747955 -4.630844 179.564758 105.519653
5 104.552910 9.721220 -10.420293 -155.747955 -4.630845 179.564758 105.519653
